<svg xmlns="http://www.w3.org/2000/svg" viewBox="0 0 596 57" class="h-[16px] md:h-[24px]"><path d="M311.84 11c4.021 0 7.566.572 10.634 1.716 2.655.99 4.804 2.357 6.447 4.1l-5.303 5.303a5.997 5.997 0 0 0-.754-1.005c-1.075-1.161-2.565-2.037-4.472-2.626-1.907-.59-4.143-.884-6.708-.884-2.773 0-5.174.442-7.202 1.326-2.028.884-3.597 2.158-4.706 3.822-1.044 1.566-1.597 3.44-1.658 5.62l-.006.412v1.3l.006.418c.061 2.212.614 4.11 1.658 5.692 1.11 1.681 2.687 2.964 4.732 3.848 2.045.884 4.455 1.326 7.228 1.326 2.67 0 4.966-.286 6.89-.858 1.924-.572 3.415-1.439 4.472-2.6a6.1 6.1 0 0 0 .669-.88l5.185 5.184c-1.621 1.715-3.737 3.063-6.348 4.042-3.05 1.144-6.621 1.716-10.712 1.716-4.819 0-8.857-.702-12.116-2.106-3.259-1.404-5.703-3.484-7.332-6.24C290.814 36.87 290 33.481 290 29.46c0-5.893 1.872-10.443 5.616-13.65 3.744-3.207 9.152-4.81 16.224-4.81Zm261 0c4.021 0 7.566.572 10.634 1.716 2.655.99 4.804 2.357 6.447 4.1l-5.303 5.303a5.997 5.997 0 0 0-.754-1.005c-1.075-1.161-2.565-2.037-4.472-2.626-1.907-.59-4.143-.884-6.708-.884-2.773 0-5.174.442-7.202 1.326-2.028.884-3.597 2.158-4.706 3.822-1.044 1.566-1.597 3.44-1.658 5.62l-.006.412v1.3l.006.418c.061 2.212.614 4.11 1.658 5.692 1.11 1.681 2.687 2.964 4.732 3.848 2.045.884 4.455 1.326 7.228 1.326 2.67 0 4.966-.286 6.89-.858 1.924-.572 3.415-1.439 4.472-2.6a6.1 6.1 0 0 0 .669-.88l5.185 5.184c-1.621 1.715-3.737 3.063-6.348 4.042-3.05 1.144-6.621 1.716-10.712 1.716-4.819 0-8.857-.702-12.116-2.106-3.259-1.404-5.703-3.484-7.332-6.24C551.814 36.87 551 33.481 551 29.46c0-5.893 1.872-10.443 5.616-13.65 3.744-3.207 9.152-4.81 16.224-4.81Zm-421.502-.1c4.75 0 8.84.72 12.272 2.158 3.432 1.439 6.076 3.528 7.93 6.266 1.855 2.739 2.782 6.084 2.782 10.036s-.927 7.306-2.782 10.062c-1.854 2.756-4.498 4.854-7.93 6.292-3.432 1.439-7.522 2.158-12.272 2.158s-8.84-.719-12.272-2.158c-3.432-1.438-6.075-3.536-7.93-6.292-1.854-2.756-2.782-6.11-2.782-10.062 0-3.952.928-7.297 2.782-10.036 1.855-2.738 4.498-4.827 7.93-6.266 3.432-1.438 7.523-2.158 12.272-2.158Zm-29.444.624v6.604H95.79v8.632h23.608v6.604H95.79v13.884h-7.904V11.524h34.008Zm89.744 0 .442.006c2.331.056 4.255.566 5.772 1.528 1.612 1.023 2.817 2.375 3.614 4.056.798 1.682 1.196 3.545 1.196 5.59 0 2.115-.546 4.1-1.638 5.954-1.031 1.752-2.596 3.14-4.694 4.165l-.376.177 7.592 14.248h-8.892l-6.552-12.74h-16.848v12.74h-7.904V11.524h28.288Zm33.824 0 8.164 18.356.084.193c.231.536.524 1.243.878 2.121.399.988.815 2.028 1.248 3.12.434 1.092.824 2.089 1.17 2.99h.364l.137-.349c.28-.713.599-1.515.955-2.407.416-1.04.832-2.062 1.248-3.068.416-1.005.763-1.837 1.04-2.496l8.164-18.46h12.012v35.724h-7.904v-21.84l.001-.362a89.21 89.21 0 0 1 .103-3.772c.035-.71.07-1.326.104-1.846h-.416l-.077.23a52.04 52.04 0 0 1-.599 1.642l-.832 2.184c-.277.728-.537 1.37-.78 1.924l-9.724 21.84h-7.696l-9.776-21.84-.309-.702c-.204-.473-.404-.959-.6-1.456a41.577 41.577 0 0 1-.78-2.132 40.6 40.6 0 0 0-.599-1.69h-.416l.015.187c.027.388.048.872.063 1.451.018.676.035 1.387.052 2.132.018.746.026 1.482.026 2.21v21.84h-7.592V11.524h12.272Zm129.384 0v6.604H346.61v7.644h25.116v6.604H346.61v8.268h28.652v6.604h-36.556V11.524h36.14Zm18.828 0 19.552 18.772.173.15c.414.364.893.834 1.44 1.41.623.659 1.273 1.335 1.95 2.028a48.097 48.097 0 0 1 1.741 1.872h.416l-.013-.293c-.032-.704-.071-1.533-.117-2.489a58.53 58.53 0 0 1-.078-2.678V11.524h7.592v35.724h-7.28l-19.604-18.98-.471-.458a84.405 84.405 0 0 1-2.467-2.532 656.48 656.48 0 0 0-2.47-2.626h-.364l.009.12c.032.465.064 1.214.095 2.246.035 1.127.052 2.418.052 3.874v18.356h-7.592V11.524h7.436Zm80.676 0v6.968h-15.86v28.756h-7.904V18.492h-15.86v-6.968h39.624Zm37.684 0 .442.006c2.331.056 4.255.566 5.772 1.528 1.612 1.023 2.817 2.375 3.614 4.056.798 1.682 1.196 3.545 1.196 5.59 0 2.115-.546 4.1-1.638 5.954-1.031 1.752-2.596 3.14-4.694 4.165l-.376.177 7.592 14.248h-8.892l-6.552-12.74H491.65v12.74h-7.904V11.524h28.288Zm29.456 0v35.724h-7.904V11.524h7.904Zm-390.152 5.98c-2.15 0-4.125.234-5.928.702-1.802.468-3.371 1.17-4.706 2.106-1.334.936-2.366 2.106-3.094 3.51-.676 1.304-1.038 2.81-1.086 4.517l-.006.397v1.196l.006.398c.048 1.708.41 3.222 1.086 4.542a9.626 9.626 0 0 0 3.094 3.536c1.335.936 2.904 1.647 4.706 2.132 1.803.486 3.779.728 5.928.728 2.15 0 4.126-.242 5.928-.728 1.803-.485 3.372-1.196 4.706-2.132a9.858 9.858 0 0 0 3.12-3.536c.692-1.32 1.063-2.834 1.113-4.542l.005-.398v-1.196l-.005-.397c-.05-1.708-.42-3.213-1.113-4.517a9.924 9.924 0 0 0-3.12-3.51c-1.334-.936-2.903-1.638-4.706-2.106-1.802-.468-3.778-.702-5.928-.702Zm58.116.624h-18.2v9.828h18.2c1.63 0 2.886-.476 3.77-1.43.884-.953 1.326-2.175 1.326-3.666 0-1.005-.19-1.863-.572-2.574-.381-.71-.953-1.248-1.716-1.612-.762-.364-1.698-.546-2.808-.546Zm300.396 0h-18.2v9.828h18.2c1.63 0 2.886-.476 3.77-1.43.884-.953 1.326-2.175 1.326-3.666 0-1.005-.19-1.863-.572-2.574-.381-.71-.953-1.248-1.716-1.612-.762-.364-1.698-.546-2.808-.546Z" fill="#23245C" fill-rule="nonzero"></path><rect fill="#23245C" x="13" width="40" height="15" rx="7.5"></rect><rect fill="#F6932D" y="21" width="40" height="15" rx="7.5"></rect><rect fill="#69CA90" x="12" y="42" width="15" height="15" rx="7.5"></rect></svg>